<?xml version="1.0" encoding="UTF-8"?>
<svg xmlns="http://www.w3.org/2000/svg" xmlns:xlink="http://www.w3.org/1999/xlink" width="25px" height="25px" viewBox="0 0 25 25" version="1.1">
<g id="surface1">
<path style=" stroke:none;fill-rule:nonzero;fill:rgb(0%,0%,0%);fill-opacity:1;" d="M 14.71875 12.492188 L 24.816406 2.390625 C 25.035156 2.175781 25.035156 1.820312 24.816406 1.605469 L 23.378906 0.164062 C 23.273438 0.0585938 23.128906 0 22.984375 0 C 22.835938 0 22.691406 0.0585938 22.589844 0.164062 L 12.492188 10.261719 L 2.390625 0.164062 C 2.183594 -0.046875 1.8125 -0.046875 1.605469 0.164062 L 0.164062 1.605469 C -0.0546875 1.820312 -0.0546875 2.175781 0.164062 2.390625 L 10.261719 12.492188 L 0.164062 22.589844 C -0.0546875 22.804688 -0.0546875 23.160156 0.164062 23.375 L 1.605469 24.816406 C 1.707031 24.921875 1.851562 24.980469 2 24.980469 C 2.144531 24.980469 2.289062 24.921875 2.390625 24.816406 L 12.492188 14.71875 L 22.589844 24.816406 C 22.695312 24.921875 22.835938 24.980469 22.984375 24.980469 C 23.128906 24.980469 23.273438 24.921875 23.378906 24.816406 L 24.816406 23.375 C 25.035156 23.160156 25.035156 22.804688 24.816406 22.589844 Z M 14.71875 12.492188 "/>
</g>
</svg>
