<?xml version="1.0" encoding="UTF-8"?>
<svg xmlns="http://www.w3.org/2000/svg" xmlns:xlink="http://www.w3.org/1999/xlink" width="40px" height="40px" viewBox="0 0 40 40" version="1.1">
<g id="surface1">
<path style=" stroke:none;fill-rule:nonzero;fill:#BBBBCC;fill-opacity:1;" d="M 25.25 14 C 22.671875 13.992188 20.191406 15.007812 18.363281 16.828125 C 16.535156 18.648438 15.503906 21.121094 15.5 23.699219 L 15.5 33.5 C 15.5 34.328125 16.171875 35 17 35 L 20.5 35 C 21.328125 35 22 34.328125 22 33.5 L 22 23.699219 C 22 22.78125 22.390625 21.90625 23.074219 21.292969 C 23.757812 20.679688 24.667969 20.382812 25.582031 20.484375 C 27.261719 20.695312 28.511719 22.125 28.5 23.816406 L 28.5 33.5 C 28.5 34.328125 29.171875 35 30 35 L 33.5 35 C 34.328125 35 35 34.328125 35 33.5 L 35 23.699219 C 34.996094 21.121094 33.964844 18.648438 32.136719 16.828125 C 30.308594 15.007812 27.828125 13.992188 25.25 14 Z M 25.25 14 "/>
<path style=" stroke:none;fill-rule:nonzero;fill:#BBBBCC;fill-opacity:1;" d="M 6.5 15.5 L 11 15.5 C 11.828125 15.5 12.5 16.171875 12.5 17 L 12.5 33.5 C 12.5 34.328125 11.828125 35 11 35 L 6.5 35 C 5.671875 35 5 34.328125 5 33.5 L 5 17 C 5 16.171875 5.671875 15.5 6.5 15.5 Z M 6.5 15.5 "/>
<path style=" stroke:none;fill-rule:nonzero;fill:#BBBBCC;fill-opacity:1;" d="M 12.5 8.75 C 12.5 10.820312 10.820312 12.5 8.75 12.5 C 6.679688 12.5 5 10.820312 5 8.75 C 5 6.679688 6.679688 5 8.75 5 C 10.820312 5 12.5 6.679688 12.5 8.75 Z M 12.5 8.75 "/>
</g>
</svg>
