<?xml version="1.0" encoding="UTF-8"?>
<svg xmlns="http://www.w3.org/2000/svg" xmlns:xlink="http://www.w3.org/1999/xlink" width="35px" height="40px" viewBox="0 0 35 40" version="1.1">
<g id="surface1">
<path style=" stroke:none;fill-rule:nonzero;fill:rgb(0%,0%,0%);fill-opacity:1;" d="M 2.460938 4.960938 C 0 7.421875 0 11.378906 0 19.300781 L 0 20.699219 C 0 28.621094 0 32.578125 2.460938 35.039062 C 4.921875 37.5 8.878906 37.5 16.800781 37.5 L 18.199219 37.5 C 26.121094 37.5 30.078125 37.5 32.539062 35.039062 C 35 32.578125 35 28.621094 35 20.699219 L 35 19.300781 C 35 11.378906 35 7.421875 32.539062 4.960938 C 30.078125 2.5 26.121094 2.5 18.199219 2.5 L 16.800781 2.5 C 8.878906 2.5 4.921875 2.5 2.460938 4.960938 Z M 5.90625 13.144531 L 9.902344 13.144531 C 10.035156 19.824219 12.980469 22.652344 15.3125 23.238281 L 15.3125 13.144531 L 19.074219 13.144531 L 19.074219 18.90625 C 21.378906 18.660156 23.800781 16.035156 24.617188 13.144531 L 28.378906 13.144531 C 28.070312 14.644531 27.457031 16.0625 26.578125 17.3125 C 25.695312 18.558594 24.566406 19.613281 23.261719 20.410156 C 24.71875 21.132812 26.007812 22.160156 27.042969 23.417969 C 28.074219 24.675781 28.828125 26.140625 29.253906 27.714844 L 25.113281 27.714844 C 24.730469 26.347656 23.953125 25.125 22.878906 24.199219 C 21.804688 23.273438 20.480469 22.683594 19.074219 22.507812 L 19.074219 27.714844 L 18.621094 27.714844 C 10.644531 27.714844 6.097656 22.246094 5.90625 13.144531 Z M 5.90625 13.144531 "/>
</g>
</svg>
